<mxfile host="app.diagrams.net">
  <diagram name="インターン生の声" id="voice">
    <mxGraphModel dx="1422" dy="794" grid="1" gridSize="10" guides="1" tooltips="1" connect="1" arrows="1" fold="1" page="1" pageScale="1" pageWidth="1400" pageHeight="900" background="#ffffff">
      <root>
        <mxCell id="0"/>
        <mxCell id="1" parent="0"/>

        <!-- Title -->
        <mxCell id="title" value="インターン生の声" style="text;html=1;strokeColor=none;fillColor=none;align=center;verticalAlign=middle;whiteSpace=wrap;rounded=0;fontSize=32;fontStyle=1;fontColor=#232F3E;" vertex="1" parent="1">
          <mxGeometry x="400" y="30" width="600" height="60" as="geometry"/>
        </mxCell>

        <!-- Before Voice 1 -->
        <mxCell id="before1-person" value="😰" style="text;html=1;strokeColor=none;fillColor=none;align=center;verticalAlign=middle;whiteSpace=wrap;rounded=0;fontSize=80;" vertex="1" parent="1">
          <mxGeometry x="100" y="150" width="100" height="100" as="geometry"/>
        </mxCell>
        <mxCell id="before1-bubble" value="" style="ellipse;whiteSpace=wrap;html=1;fillColor=#ffcccc;strokeColor=#CC0000;strokeWidth=3;" vertex="1" parent="1">
          <mxGeometry x="240" y="140" width="380" height="120" as="geometry"/>
        </mxCell>
        <mxCell id="before1-text" value="Dockerのエラーで1日潰れた...&lt;br&gt;機械学習の勉強がしたいのに..." style="text;html=1;strokeColor=none;fillColor=none;align=left;verticalAlign=middle;whiteSpace=wrap;rounded=0;fontSize=16;spacingLeft=20;" vertex="1" parent="1">
          <mxGeometry x="260" y="165" width="340" height="70" as="geometry"/>
        </mxCell>
        <mxCell id="before1-tag" value="移行前（AWS ECS環境）" style="rounded=1;whiteSpace=wrap;html=1;fillColor=#CC0000;strokeColor=none;fontSize=14;fontStyle=1;fontColor=#ffffff;" vertex="1" parent="1">
          <mxGeometry x="400" y="110" width="200" height="30" as="geometry"/>
        </mxCell>

        <!-- Before Voice 2 -->
        <mxCell id="before2-person" value="😩" style="text;html=1;strokeColor=none;fillColor=none;align=center;verticalAlign=middle;whiteSpace=wrap;rounded=0;fontSize=80;" vertex="1" parent="1">
          <mxGeometry x="100" y="320" width="100" height="100" as="geometry"/>
        </mxCell>
        <mxCell id="before2-bubble" value="" style="ellipse;whiteSpace=wrap;html=1;fillColor=#ffe6cc;strokeColor=#d79b00;strokeWidth=3;" vertex="1" parent="1">
          <mxGeometry x="240" y="310" width="380" height="120" as="geometry"/>
        </mxCell>
        <mxCell id="before2-text" value="ビルド待ちが長すぎて&lt;br&gt;デバッグが全然進まない..." style="text;html=1;strokeColor=none;fillColor=none;align=left;verticalAlign=middle;whiteSpace=wrap;rounded=0;fontSize=16;spacingLeft=20;" vertex="1" parent="1">
          <mxGeometry x="260" y="335" width="340" height="70" as="geometry"/>
        </mxCell>

        <!-- After Voice 1 -->
        <mxCell id="after1-person" value="😊" style="text;html=1;strokeColor=none;fillColor=none;align=center;verticalAlign=middle;whiteSpace=wrap;rounded=0;fontSize=80;" vertex="1" parent="1">
          <mxGeometry x="780" y="150" width="100" height="100" as="geometry"/>
        </mxCell>
        <mxCell id="after1-bubble" value="" style="ellipse;whiteSpace=wrap;html=1;fillColor=#d5e8d4;strokeColor=#82b366;strokeWidth=3;" vertex="1" parent="1">
          <mxGeometry x="920" y="140" width="380" height="120" as="geometry"/>
        </mxCell>
        <mxCell id="after1-text" value="ノートブック開くだけ！&lt;br&gt;すぐに機械学習の勉強ができる！" style="text;html=1;strokeColor=none;fillColor=none;align=left;verticalAlign=middle;whiteSpace=wrap;rounded=0;fontSize=16;spacingLeft=20;" vertex="1" parent="1">
          <mxGeometry x="940" y="165" width="340" height="70" as="geometry"/>
        </mxCell>
        <mxCell id="after1-tag" value="移行後（Databricks環境）" style="rounded=1;whiteSpace=wrap;html=1;fillColor=#00AA00;strokeColor=none;fontSize=14;fontStyle=1;fontColor=#ffffff;" vertex="1" parent="1">
          <mxGeometry x="1040" y="110" width="220" height="30" as="geometry"/>
        </mxCell>

        <!-- After Voice 2 -->
        <mxCell id="after2-person" value="🎉" style="text;html=1;strokeColor=none;fillColor=none;align=center;verticalAlign=middle;whiteSpace=wrap;rounded=0;fontSize=80;" vertex="1" parent="1">
          <mxGeometry x="780" y="320" width="100" height="100" as="geometry"/>
        </mxCell>
        <mxCell id="after2-bubble" value="" style="ellipse;whiteSpace=wrap;html=1;fillColor=#dae8fc;strokeColor=#6c8ebf;strokeWidth=3;" vertex="1" parent="1">
          <mxGeometry x="920" y="310" width="380" height="120" as="geometry"/>
        </mxCell>
        <mxCell id="after2-text" value="セル実行したら数秒で結果が出た！&lt;br&gt;トライアンドエラーがめちゃ速い！" style="text;html=1;strokeColor=none;fillColor=none;align=left;verticalAlign=middle;whiteSpace=wrap;rounded=0;fontSize=16;spacingLeft=20;" vertex="1" parent="1">
          <mxGeometry x="940" y="335" width="340" height="70" as="geometry"/>
        </mxCell>

        <!-- Mentor Voice -->
        <mxCell id="mentor-box" value="" style="rounded=1;whiteSpace=wrap;html=1;fillColor=#fff2cc;strokeColor=#d6b656;strokeWidth=3;" vertex="1" parent="1">
          <mxGeometry x="200" y="550" width="1000" height="200" as="geometry"/>
        </mxCell>
        <mxCell id="mentor-icon" value="👨‍🏫" style="text;html=1;strokeColor=none;fillColor=none;align=center;verticalAlign=middle;whiteSpace=wrap;rounded=0;fontSize=80;" vertex="1" parent="1">
          <mxGeometry x="240" y="590" width="120" height="100" as="geometry"/>
        </mxCell>
        <mxCell id="mentor-title" value="メンターから見た効果" style="text;html=1;strokeColor=none;fillColor=none;align=left;verticalAlign=top;whiteSpace=wrap;rounded=0;fontSize=24;fontStyle=1;fontColor=#d6b656;spacingLeft=20;" vertex="1" parent="1">
          <mxGeometry x="400" y="570" width="760" height="40" as="geometry"/>
        </mxCell>
        <mxCell id="mentor-text" value="✓ インターン生が本質的なスキル習得に集中できるようになった&lt;br&gt;✓ 質問内容がインフラからモデル改善に変わった&lt;br&gt;✓ インターン期間中の成果物のクオリティが向上した" style="text;html=1;strokeColor=none;fillColor=none;align=left;verticalAlign=middle;whiteSpace=wrap;rounded=0;fontSize=18;spacingLeft=20;" vertex="1" parent="1">
          <mxGeometry x="400" y="630" width="760" height="100" as="geometry"/>
        </mxCell>

        <!-- Arrow -->
        <mxCell id="arrow" value="移行" style="shape=flexArrow;endArrow=classic;html=1;strokeWidth=5;fillColor=#ffcc99;strokeColor=#FF6600;width=40;endSize=8;fontSize=20;fontStyle=1;fontColor=#FF6600;" edge="1" parent="1">
          <mxGeometry width="50" height="50" relative="1" as="geometry">
            <mxPoint x="660" y="280" as="sourcePoint"/>
            <mxPoint x="740" y="280" as="targetPoint"/>
          </mxGeometry>
        </mxCell>

      </root>
    </mxGraphModel>
  </diagram>
</mxfile>
